<?xml version="1.0" encoding="UTF-8"?>
<!DOCTYPE svg  PUBLIC '-//W3C//DTD SVG 1.1//EN'  'http://www.w3.org/Graphics/SVG/1.1/DTD/svg11.dtd'>
<svg width="1024" height="192" version="1.1" viewBox="-3.1887 -3.1887 602.42 112.67" xmlns="http://www.w3.org/2000/svg">
<path d="m286.6 53.123-15.464-21.309-19.321-26.719c-4.0088-5.5125-11.724-6.7438-17.251-2.7538h-0.2875c-5.5175 4.0088-6.7488 11.722-2.7538 17.25l24.155 33.286-24.155 33.335c-4.0088 5.5325-2.7988 13.258 2.705 17.3h0.2875c5.5275 3.9887 13.242 2.7587 17.251-2.7538l14.492-19.619 20.341-28.018z" fill="#ffad00"/>
<path d="m308.1 2.5372h-0.2925c-5.5225-3.9937-13.238-2.7587-17.246 2.7538l-13.189 17.925 15.704 21.304 17.729-24.736c3.99-5.5225 2.7588-13.238-2.7538-17.246m2.7538 83.921-17.729-24.738-15.512 21.304 13.192 18.17c4.0038 5.5125 11.719 6.7425 17.246 2.7538h0.28875c5.5175-4.0088 6.7475-11.724 2.7538-17.251m240.22-64.301h33.481c5.4588-0.03 9.8775-4.4488 9.9075-9.9075v-11.255h-43.482c-17.231 0.3412-31.025 14.409-31.02 31.645 0.0825 16.978 13.896 30.684 30.874 30.63h13.672c5.2688 0.3662 9.35 4.7462 9.35 10.025 0 5.2775-4.0812 9.6575-9.35 10.024h-43.481v11.26c0.0238 5.4588 4.4425 9.8775 9.9012 9.9025h33.819c17.271-0.2887 31.119-14.375 31.119-31.646-0.0537-16.894-13.741-30.575-30.635-30.629h-13.911c-5.2688-0.3662-9.355-4.7462-9.355-10.025 0-5.2837 4.0862-9.6587 9.355-10.024m-41.89-21.065h-11.689c-5.3375 0-9.6638 4.3262-9.6638 9.6625v61.451c0 8.8425-6.0888 14.496-16.572 14.496h-4.8338c-10.484 0-16.568-5.8938-16.568-14.496v-71.114h-11.791c-5.3375 0-9.6638 4.3262-9.6638 9.6625v64.932c0 18.212 12.515 30.341 34.16 30.341h12.515c21.641 0 34.155-12.129 34.155-30.341l-0.0488-74.595zm-129.58 86.768h-18.31c-5.3375 0-9.6638-4.3263-9.6638-9.6625v-17.392h27.974c7.4412 0 13.476 6.035 13.476 13.481 0 7.4463-6.035 13.476-13.476 13.476m-27.876-69.81h24.879c6.6738 0 12.08 5.405 12.08 12.075 0 6.675-5.4062 12.08-12.08 12.08h-16.329c-4.7112-0.024-8.525-3.8375-8.55-8.5488v-15.606zm56.236 35.704c-0.58125-0.5325-2.1738-1.7875-2.6075-2.1237 5-5.5325 7.5438-12.852 7.05-20.294 0-18.891-12.221-30.054-31.112-30.054h-40.826c-5.4588 0.03-9.8775 4.4487-9.9012 9.9075v83.628c0.0238 5.46 4.4425 9.8787 9.9012 9.9075h45.465c18.891 0 30.292-11.015 30.292-29.908 0.24375-7.8663-2.7588-15.482-8.3112-21.064m-208.08-22.661h-16.572v-19.902c0.0288-5.4888 4.4675-9.9263 9.9512-9.9563h6.6212c5.4825 0.03 9.9262 4.4675 9.9512 9.9563v9.9512c-0.025 5.4888-4.4688 9.9263-9.9512 9.9513m9.9512 73.681h-26.524v-54.062c0.0288-5.4875 4.4675-9.9262 9.9512-9.9562h16.572v64.019zm-80.972-21.309c-2.67 0-4.8338-2.1625-4.8338-4.8288v-67.398c5e-3 -2.6712-1.0638-5.23-2.9588-7.1087-1.9-1.875-4.4675-2.92-7.1338-2.8963h-16.67v93.535c0 5.5275 4.4775 10.005 10 10.005h54.399c5.5275 0 10.005-4.4775 10.005-10.005v-11.304h-42.808zm-119.29-82.231c-5.4788 0-9.9275 4.4288-9.9512 9.9075v93.632h26.474v-40.684h37.54c2.6412 0 5.17-1.045 7.04-2.915 1.8662-1.865 2.915-4.3938 2.915-7.0363v-11.206h-47.495v-15.561c0-2.6662 2.1638-4.8287 4.835-4.8287h44.975c5.4975 0 9.9562-4.4575 9.9562-9.9513v-11.358h-76.289z" fill="#73d700"/>
</svg>
